<svg width="17" height="20" viewBox="0 0 17 20" fill="none" xmlns="http://www.w3.org/2000/svg">
<path d="M5.83487 0C5.49042 0 5.21152 0.401235 5.21152 0.745713V1.04089C5.21152 1.28457 5.35208 1.49422 5.55524 1.59626C5.5522 1.63664 5.5494 1.67741 5.5494 1.7186V7.58513C5.45718 7.75886 5.36732 7.93981 5.26976 8.11914L0.228286 17.2386C-0.583568 18.731 0.961372 20 1.87118 20H14.4861C15.3959 20 16.9574 18.7614 16.129 17.2386L11.0879 8.11914C10.9904 7.93979 10.9005 7.75885 10.8083 7.58513V1.7186C10.8083 1.67741 10.8055 1.63664 10.8024 1.59626C11.0056 1.49419 11.1462 1.28455 11.1462 1.04089V0.745713C11.1462 0.401251 10.8692 0 10.5248 0H5.83487Z" fill="#334D6E"/>
<path d="M7.20976 7.37048H9.15518C9.9292 7.37048 10.1824 8.09175 10.5523 8.77554L14.9457 16.8979C15.833 18.5383 14.3225 19.2599 13.5485 19.2599H2.81626C2.04224 19.2599 0.628432 18.3596 1.41917 16.8979L5.81253 8.77554C6.1824 8.09175 6.43568 7.37048 7.20963 7.37048H7.20976Z" fill="white"/>
<path d="M10.1756 1.2616H6.18433V8.57549H10.1756V1.2616Z" fill="white"/>
<path d="M5.83032 0.79582V1.08558C5.83032 1.23315 5.94996 1.35278 6.09753 1.35278L10.2565 1.35278C10.4041 1.35278 10.5237 1.23315 10.5237 1.08558V0.79582C10.5237 0.648248 10.4041 0.528618 10.2565 0.528618L6.09753 0.528618C5.94996 0.528618 5.83032 0.648248 5.83032 0.79582Z" fill="white"/>
<path d="M10.7446 9.97202L14.2511 16.6377C15.0187 18.0969 13.7002 18.7259 13.016 18.7259H3.52805C2.84378 18.7259 1.59106 17.9284 2.29291 16.6377L5.7307 10.3153C8.77 11.5075 9.87541 8.19375 10.7447 9.97206L10.7446 9.97202Z" fill="#334D6E"/>
<path d="M8.6107 14.8177C8.6107 15.4433 8.10354 15.9504 7.47794 15.9504C6.85235 15.9504 6.34521 15.4433 6.34521 14.8177C6.34521 14.1921 6.85235 13.6849 7.47794 13.6849C8.10354 13.6849 8.6107 14.1921 8.6107 14.8177Z" fill="white"/>
<path d="M7.00058 13.4627C7.00058 13.8324 6.70089 14.1321 6.33122 14.1321C5.96154 14.1321 5.66187 13.8324 5.66187 13.4627C5.66187 13.093 5.96154 12.7933 6.33122 12.7933C6.70089 12.7933 7.00058 13.093 7.00058 13.4627Z" fill="white"/>
<path d="M9.64278 12.1592C9.64278 12.3772 9.46604 12.5539 9.24802 12.5539C9.03001 12.5539 8.85327 12.3772 8.85327 12.1592C8.85327 11.9411 9.03001 11.7644 9.24802 11.7644C9.46604 11.7644 9.64278 11.9411 9.64278 12.1592Z" fill="white"/>
<path d="M9.19728 1.41357H9.19727C9.03843 1.41357 8.90967 1.54234 8.90967 1.70117V7.38538C8.90967 7.54422 9.03843 7.67298 9.19727 7.67298H9.19728C9.35611 7.67298 9.48488 7.54422 9.48488 7.38538V1.70117C9.48488 1.54234 9.35611 1.41357 9.19728 1.41357Z" fill="#334D6E"/>
</svg>
