<svg width="19" height="19" viewBox="0 0 19 19" fill="none" xmlns="http://www.w3.org/2000/svg">
<path d="M1.3 9.4C1.52089 9.4 1.7 9.57909 1.7 9.8H0.3C0.3 10.3523 0.747725 10.8 1.3 10.8V9.4ZM1.7 9.8V1.8H0.3V9.8H1.7ZM1.7 1.8C1.7 2.02091 1.52091 2.2 1.3 2.2V0.8C0.747711 0.8 0.3 1.24771 0.3 1.8H1.7ZM1.3 2.2H7.3V0.8H1.3V2.2ZM7.3 2.2C7.07908 2.2 6.9 2.02089 6.9 1.8H8.3C8.3 1.24773 7.85232 0.8 7.3 0.8V2.2ZM6.9 1.8V9.8H8.3V1.8H6.9ZM6.9 9.8C6.9 9.5791 7.0791 9.4 7.3 9.4V10.8C7.8523 10.8 8.3 10.3523 8.3 9.8H6.9ZM7.3 9.4H1.3V10.8H7.3V9.4ZM1.3 17.4C1.52089 17.4 1.7 17.5791 1.7 17.8H0.3C0.3 18.3523 0.747727 18.8 1.3 18.8V17.4ZM1.7 17.8V13.8H0.3V17.8H1.7ZM1.7 13.8C1.7 14.0209 1.52089 14.2 1.3 14.2V12.8C0.747751 12.8 0.3 13.2477 0.3 13.8H1.7ZM1.3 14.2H7.3V12.8H1.3V14.2ZM7.3 14.2C7.0791 14.2 6.9 14.0209 6.9 13.8H8.3C8.3 13.2477 7.8523 12.8 7.3 12.8V14.2ZM6.9 13.8V17.8H8.3V13.8H6.9ZM6.9 17.8C6.9 17.5791 7.0791 17.4 7.3 17.4V18.8C7.8523 18.8 8.3 18.3523 8.3 17.8H6.9ZM7.3 17.4H1.3V18.8H7.3V17.4ZM11.3 17.4C11.5209 17.4 11.7 17.5791 11.7 17.8H10.3C10.3 18.3523 10.7477 18.8 11.3 18.8V17.4ZM11.7 17.8V9.8H10.3V17.8H11.7ZM11.7 9.8C11.7 10.0209 11.5209 10.2 11.3 10.2V8.8C10.7477 8.8 10.3 9.2477 10.3 9.8H11.7ZM11.3 10.2H17.3V8.8H11.3V10.2ZM17.3 10.2C17.0791 10.2 16.9 10.0209 16.9 9.8H18.3C18.3 9.2477 17.8523 8.8 17.3 8.8V10.2ZM16.9 9.8V17.8H18.3V9.8H16.9ZM16.9 17.8C16.9 17.5791 17.0791 17.4 17.3 17.4V18.8C17.8523 18.8 18.3 18.3523 18.3 17.8H16.9ZM17.3 17.4H11.3V18.8H17.3V17.4ZM11.7 1.8C11.7 2.02089 11.5209 2.2 11.3 2.2V0.8C10.7477 0.8 10.3 1.24773 10.3 1.8H11.7ZM11.3 2.2H17.3V0.8H11.3V2.2ZM17.3 2.2C17.0791 2.2 16.9 2.02089 16.9 1.8H18.3C18.3 1.24773 17.8523 0.8 17.3 0.8V2.2ZM16.9 1.8V5.8H18.3V1.8H16.9ZM16.9 5.8C16.9 5.57911 17.0791 5.4 17.3 5.4V6.8C17.8523 6.8 18.3 6.35227 18.3 5.8H16.9ZM17.3 5.4H11.3V6.8H17.3V5.4ZM11.3 5.4C11.5209 5.4 11.7 5.57911 11.7 5.8H10.3C10.3 6.35228 10.7477 6.8 11.3 6.8V5.4ZM11.7 5.8V1.8H10.3V5.8H11.7Z" fill="#192A3E"/>
</svg>
