<svg width="24" height="24" viewBox="0 0 24 24" fill="none" xmlns="http://www.w3.org/2000/svg">
<circle cx="12" cy="12" r="12" fill="#25317B"/>
<path fill-rule="evenodd" clip-rule="evenodd" d="M13.7583 14.1667H14.4167L18.575 18.3333L17.3333 19.575L13.1667 15.4167V14.7583L12.9417 14.525C11.9917 15.3417 10.7583 15.8333 9.41667 15.8333C6.425 15.8333 4 13.4083 4 10.4167C4 7.425 6.425 5 9.41667 5C12.4083 5 14.8333 7.425 14.8333 10.4167C14.8333 11.7583 14.3417 12.9917 13.525 13.9417L13.7583 14.1667ZM5.66667 10.4167C5.66667 12.4917 7.34167 14.1667 9.41667 14.1667C11.4917 14.1667 13.1667 12.4917 13.1667 10.4167C13.1667 8.34167 11.4917 6.66667 9.41667 6.66667C7.34167 6.66667 5.66667 8.34167 5.66667 10.4167Z" fill="white"/>
</svg>
