<svg width="20" height="19" viewBox="0 0 20 19" fill="none" xmlns="http://www.w3.org/2000/svg">
<path d="M1.3 1.7H18.3V0.3H1.3V1.7ZM18.3 1.7C18.0768 1.7 17.9 1.5232 17.9 1.3H19.3C19.3 0.749997 18.85 0.3 18.3 0.3V1.7ZM17.9 1.3V7.3H19.3V1.3H17.9ZM17.9 7.3C17.9 7.0768 18.0768 6.9 18.3 6.9V8.3C18.85 8.3 19.3 7.85 19.3 7.3H17.9ZM18.3 6.9H1.3V8.3H18.3V6.9ZM1.3 6.9C1.5232 6.9 1.7 7.0768 1.7 7.3H0.3C0.3 7.85 0.750002 8.3 1.3 8.3V6.9ZM1.7 7.3V1.3H0.3V7.3H1.7ZM1.7 1.3C1.7 1.5232 1.5232 1.7 1.3 1.7V0.3C0.750001 0.3 0.3 0.750001 0.3 1.3H1.7ZM1.3 11.7H18.3V10.3H1.3V11.7ZM18.3 11.7C18.0768 11.7 17.9 11.5232 17.9 11.3H19.3C19.3 10.75 18.85 10.3 18.3 10.3V11.7ZM17.9 11.3V17.3H19.3V11.3H17.9ZM17.9 17.3C17.9 17.0768 18.0768 16.9 18.3 16.9V18.3C18.85 18.3 19.3 17.85 19.3 17.3H17.9ZM18.3 16.9H1.3V18.3H18.3V16.9ZM1.3 16.9C1.5232 16.9 1.7 17.0768 1.7 17.3H0.3C0.3 17.85 0.750002 18.3 1.3 18.3V16.9ZM1.7 17.3V11.3H0.3V17.3H1.7ZM1.7 11.3C1.7 11.5232 1.5232 11.7 1.3 11.7V10.3C0.750001 10.3 0.3 10.75 0.3 11.3H1.7Z" fill="#192A3E"/>
</svg>
