<svg width="17" height="20" viewBox="0 0 17 20" fill="none" xmlns="http://www.w3.org/2000/svg">
<path fill-rule="evenodd" clip-rule="evenodd" d="M16 16V15.7071L14.1464 13.8536L14 13.7071V13.5V8.5C14 5.60482 12.4681 3.28076 9.8843 2.66644L9.5 2.57506V2.18V1.5C9.5 0.94614 9.0539 0.5 8.5 0.5C7.9461 0.5 7.5 0.94614 7.5 1.5V2.18V2.57538L7.1153 2.66653C4.52219 3.28092 3 5.59437 3 8.5V13.5V13.7071L2.85355 13.8536L1 15.7071V16H16ZM8.5 19C9.1488 19 9.7061 18.5806 9.9135 18H7.0854C7.2907 18.5813 7.8443 19 8.5 19Z" fill="white"/>
<path d="M16 15.7071H16.5V15.5L16.3535 15.3535L16 15.7071ZM16 16V16.5H16.5V16H16ZM14.1464 13.8536L13.7927 14.207L13.7929 14.2072L14.1464 13.8536ZM14 13.7071H13.5V13.9141L13.6463 14.0605L14 13.7071ZM9.8843 2.66644L9.76863 3.15288L9.76865 3.15288L9.8843 2.66644ZM9.5 2.57506H9V2.97011L9.38433 3.0615L9.5 2.57506ZM7.5 2.57538L7.61528 3.06191L8 2.97075V2.57538H7.5ZM7.1153 2.66653L7.23057 3.15306L7.23058 3.15306L7.1153 2.66653ZM3 13.7071L3.35361 14.0606L3.5 13.9142V13.7071H3ZM2.85355 13.8536L3.2071 14.2072L3.20716 14.2071L2.85355 13.8536ZM1 15.7071L0.646451 15.3535L0.5 15.5V15.7071H1ZM1 16H0.5V16.5H1V16ZM9.9135 18L10.3844 18.1682L10.6231 17.5H9.9135V18ZM7.0854 18V17.5H6.37855L6.61394 18.1665L7.0854 18ZM15.5 15.7071V16H16.5V15.7071H15.5ZM13.7929 14.2072L15.6465 16.0607L16.3535 15.3535L14.4999 13.5L13.7929 14.2072ZM13.6463 14.0605L13.7927 14.207L14.5001 13.5002L14.3537 13.3537L13.6463 14.0605ZM13.5 13.5V13.7071H14.5V13.5H13.5ZM13.5 8.5V13.5H14.5V8.5H13.5ZM9.76865 3.15288C12.0771 3.70173 13.5 5.78066 13.5 8.5H14.5C14.5 5.42898 12.8591 2.85979 9.99996 2.18L9.76865 3.15288ZM9.38433 3.0615L9.76863 3.15288L9.99997 2.18L9.61567 2.08862L9.38433 3.0615ZM9 2.18V2.57506H10V2.18H9ZM9 1.5V2.18H10V1.5H9ZM8.5 1C8.77774 1 9 1.22227 9 1.5H10C10 0.670011 9.33006 0 8.5 0V1ZM8 1.5C8 1.22227 8.22226 1 8.5 1V0C7.66994 0 7 0.670011 7 1.5H8ZM8 2.18V1.5H7V2.18H8ZM8 2.57538V2.18H7V2.57538H8ZM7.23058 3.15306L7.61528 3.06191L7.38472 2.08885L7.00002 2.18L7.23058 3.15306ZM3.5 8.5C3.5 5.76977 4.91352 3.70204 7.23057 3.15306L7.00003 2.18C4.13086 2.8598 2.5 5.41897 2.5 8.5H3.5ZM3.5 13.5V8.5H2.5V13.5H3.5ZM3.5 13.7071V13.5H2.5V13.7071H3.5ZM3.20716 14.2071L3.35361 14.0606L2.64639 13.3536L2.49994 13.5001L3.20716 14.2071ZM1.35355 16.0607L3.2071 14.2072L2.5 13.5L0.646451 15.3535L1.35355 16.0607ZM1.5 16V15.7071H0.5V16H1.5ZM16 15.5H1V16.5H16V15.5ZM9.44264 17.8318C9.30347 18.2214 8.92916 18.5 8.5 18.5V19.5C9.36844 19.5 10.1087 18.9398 10.3844 18.1682L9.44264 17.8318ZM7.0854 18.5H9.9135V17.5H7.0854V18.5ZM8.5 18.5C8.06348 18.5 7.69401 18.2218 7.55686 17.8335L6.61394 18.1665C6.88739 18.9408 7.62512 19.5 8.5 19.5V18.5Z" fill="#C2CFE0"/>
</svg>
