<svg width="19" height="22" viewBox="0 0 19 22" fill="none" xmlns="http://www.w3.org/2000/svg">
<path fill-rule="evenodd" clip-rule="evenodd" d="M16 18V17.7071L14.1464 15.8536L14 15.7071V15.5V10.5C14 7.60482 12.4681 5.28076 9.8843 4.66644L9.5 4.57506V4.18V3.5C9.5 2.94614 9.0539 2.5 8.5 2.5C7.9461 2.5 7.5 2.94614 7.5 3.5V4.18V4.57538L7.1153 4.66653C4.52219 5.28092 3 7.59437 3 10.5V15.5V15.7071L2.85355 15.8536L1 17.7071V18H16ZM8.5 21C9.1488 21 9.7061 20.5806 9.9135 20H7.0854C7.2907 20.5813 7.8443 21 8.5 21Z" fill="white"/>
<path d="M16 17.7071H16.5V17.5L16.3535 17.3535L16 17.7071ZM16 18V18.5H16.5V18H16ZM14.1464 15.8536L13.7927 16.207L13.7929 16.2072L14.1464 15.8536ZM14 15.7071H13.5V15.9141L13.6463 16.0605L14 15.7071ZM9.8843 4.66644L9.76863 5.15288L9.76865 5.15288L9.8843 4.66644ZM9.5 4.57506H9V4.97011L9.38433 5.0615L9.5 4.57506ZM7.5 4.57538L7.61528 5.06191L8 4.97075V4.57538H7.5ZM7.1153 4.66653L7.23057 5.15306L7.23058 5.15306L7.1153 4.66653ZM3 15.7071L3.35361 16.0606L3.5 15.9142V15.7071H3ZM2.85355 15.8536L3.2071 16.2072L3.20716 16.2071L2.85355 15.8536ZM1 17.7071L0.646451 17.3535L0.5 17.5V17.7071H1ZM1 18H0.5V18.5H1V18ZM9.9135 20L10.3844 20.1682L10.6231 19.5H9.9135V20ZM7.0854 20V19.5H6.37855L6.61394 20.1665L7.0854 20ZM15.5 17.7071V18H16.5V17.7071H15.5ZM13.7929 16.2072L15.6465 18.0607L16.3535 17.3535L14.4999 15.5L13.7929 16.2072ZM13.6463 16.0605L13.7927 16.207L14.5001 15.5002L14.3537 15.3537L13.6463 16.0605ZM13.5 15.5V15.7071H14.5V15.5H13.5ZM13.5 10.5V15.5H14.5V10.5H13.5ZM9.76865 5.15288C12.0771 5.70173 13.5 7.78066 13.5 10.5H14.5C14.5 7.42898 12.8591 4.85979 9.99996 4.18L9.76865 5.15288ZM9.38433 5.0615L9.76863 5.15288L9.99997 4.18L9.61567 4.08862L9.38433 5.0615ZM9 4.18V4.57506H10V4.18H9ZM9 3.5V4.18H10V3.5H9ZM8.5 3C8.77774 3 9 3.22227 9 3.5H10C10 2.67001 9.33006 2 8.5 2V3ZM8 3.5C8 3.22227 8.22226 3 8.5 3V2C7.66994 2 7 2.67001 7 3.5H8ZM8 4.18V3.5H7V4.18H8ZM8 4.57538V4.18H7V4.57538H8ZM7.23058 5.15306L7.61528 5.06191L7.38472 4.08885L7.00002 4.18L7.23058 5.15306ZM3.5 10.5C3.5 7.76977 4.91352 5.70204 7.23057 5.15306L7.00003 4.18C4.13086 4.8598 2.5 7.41897 2.5 10.5H3.5ZM3.5 15.5V10.5H2.5V15.5H3.5ZM3.5 15.7071V15.5H2.5V15.7071H3.5ZM3.20716 16.2071L3.35361 16.0606L2.64639 15.3536L2.49994 15.5001L3.20716 16.2071ZM1.35355 18.0607L3.2071 16.2072L2.5 15.5L0.646451 17.3535L1.35355 18.0607ZM1.5 18V17.7071H0.5V18H1.5ZM16 17.5H1V18.5H16V17.5ZM9.44264 19.8318C9.30347 20.2214 8.92916 20.5 8.5 20.5V21.5C9.36844 21.5 10.1087 20.9398 10.3844 20.1682L9.44264 19.8318ZM7.0854 20.5H9.9135V19.5H7.0854V20.5ZM8.5 20.5C8.06348 20.5 7.69401 20.2218 7.55686 19.8335L6.61394 20.1665C6.88739 20.9408 7.62512 21.5 8.5 21.5V20.5Z" fill="#C2CFE0"/>
<circle cx="13.5" cy="5.5" r="4.5" fill="#F7685B" stroke="white"/>
</svg>
