<svg width="19" height="19" viewBox="0 0 19 19" fill="none" xmlns="http://www.w3.org/2000/svg">
<path d="M1.79504 13.9426L1.32032 13.4282L1.32027 13.4283L1.79504 13.9426ZM4.05885 12.6194L3.79856 11.9695L3.79852 11.9696L4.05885 12.6194ZM15.2078 12.6194L15.4681 11.9696L15.4681 11.9695L15.2078 12.6194ZM17.4716 13.9426L17.9463 13.4282L17.9463 13.4282L17.4716 13.9426ZM18.2667 18.2667V18.9667H18.9667V18.2667H18.2667ZM1 18.2667H0.3V18.9667H1V18.2667ZM6.36666 4.96667C6.36666 3.16153 7.82818 1.7 9.63337 1.7V0.3C7.055 0.3 4.96666 2.38833 4.96666 4.96667H6.36666ZM9.63337 1.7C11.4385 1.7 12.9 3.16152 12.9 4.96667H14.3C14.3 2.38834 12.2117 0.3 9.63337 0.3V1.7ZM12.9 4.96667C12.9 6.77182 11.4385 8.23335 9.63337 8.23335V9.63335C12.2117 9.63335 14.3 7.54498 14.3 4.96667H12.9ZM9.63337 8.23335C7.82819 8.23335 6.36666 6.7718 6.36666 4.96667H4.96666C4.96666 7.545 7.05499 9.63335 9.63337 9.63335V8.23335ZM1.7 15.4667C1.7 15.204 1.82096 14.8713 2.26981 14.457L1.32027 13.4283C0.687615 14.0122 0.3 14.6919 0.3 15.4667H1.7ZM2.26976 14.4571C2.72915 14.0332 3.43261 13.6243 4.31918 13.2691L3.79852 11.9696C2.82657 12.359 1.95195 12.8453 1.32032 13.4282L2.26976 14.4571ZM4.31914 13.2692C6.09449 12.558 8.2509 12.2 9.63337 12.2V10.8C8.07584 10.8 5.74249 11.1909 3.79856 11.9695L4.31914 13.2692ZM9.63337 12.2C11.0158 12.2 13.1722 12.558 14.9475 13.2692L15.4681 11.9695C13.5242 11.1909 11.1909 10.8 9.63337 10.8V12.2ZM14.9474 13.2691C15.834 13.6243 16.5375 14.0332 16.9968 14.4571L17.9463 13.4282C17.3147 12.8453 16.4401 12.359 15.4681 11.9696L14.9474 13.2691ZM16.9968 14.4571C17.4457 14.8713 17.5667 15.204 17.5667 15.4667H18.9667C18.9667 14.6919 18.579 14.0122 17.9463 13.4282L16.9968 14.4571ZM17.5667 15.4667V18.2667H18.9667V15.4667H17.5667ZM18.2667 17.5667H1V18.9667H18.2667V17.5667ZM1.7 18.2667V15.4667H0.3V18.2667H1.7Z" fill="#192A3E"/>
</svg>
